<svg id="svg" version="1.1" xmlns="http://www.w3.org/2000/svg" xmlns:xlink="http://www.w3.org/1999/xlink" width="400" height="400" viewBox="0, 0, 400,400"><g id="svgg"><path id="path0" d="M192.011 30.534 C 122.891 37.848,107.464 133.049,170.554 162.939 C 229.634 190.928,291.488 127.163,262.299 68.359 C 251.020 45.638,220.775 27.266,198.828 29.805 C 198.398 29.855,195.331 30.183,192.011 30.534 M69.834 95.260 C 35.440 100.741,15.881 138.469,31.180 169.817 C 53.896 216.361,122.381 204.977,129.836 153.418 C 134.685 119.880,103.714 89.861,69.834 95.260 M315.234 95.039 C 270.645 102.168,254.047 155.491,287.019 185.685 C 321.017 216.818,376.493 190.561,373.966 144.531 C 372.295 114.084,344.199 90.408,315.234 95.039 M157.182 183.623 C 133.307 186.855,113.509 204.698,108.072 227.881 C 105.735 237.848,105.877 360.029,108.231 364.035 C 111.970 370.400,104.522 369.922,200.000 369.922 C 295.478 369.922,288.030 370.400,291.769 364.035 C 294.123 360.029,294.265 237.848,291.928 227.881 C 287.158 207.543,270.765 190.679,250.224 184.982 C 243.613 183.149,168.762 182.055,157.182 183.623 M46.934 214.131 C 29.017 217.646,14.155 228.987,5.881 245.459 C -0.004 257.176,-0.094 258.091,0.164 303.948 L 0.391 344.225 3.267 350.042 C 11.848 367.394,19.957 370.246,60.829 370.287 L 86.111 370.313 85.439 367.383 C 85.068 365.771,84.766 333.867,84.766 296.484 L 84.766 228.516 86.524 222.132 C 87.492 218.621,88.496 215.193,88.756 214.515 C 89.295 213.111,53.790 212.786,46.934 214.131 M311.218 214.448 C 311.492 215.163,312.508 218.621,313.476 222.132 L 315.234 228.516 315.234 296.484 C 315.234 333.867,314.932 365.771,314.561 367.383 L 313.889 370.313 339.171 370.287 C 380.043 370.246,388.152 367.394,396.733 350.042 L 399.609 344.225 399.836 303.948 C 400.094 258.091,400.004 257.176,394.119 245.459 C 386.768 230.826,375.041 220.849,358.984 215.568 C 351.560 213.127,310.340 212.160,311.218 214.448 " stroke="none" fill="#000000" fill-rule="evenodd"></path></g></svg>